<?xml version="1.0" standalone="no"?>
<!DOCTYPE svg PUBLIC "-//W3C//DTD SVG 20010904//EN"
 "http://www.w3.org/TR/2001/REC-SVG-20010904/DTD/svg10.dtd">
<svg version="1.0" xmlns="http://www.w3.org/2000/svg"
 width="504.000000pt" height="130.000000pt" viewBox="0 0 504.000000 130.000000"
 preserveAspectRatio="xMidYMid meet">

<g transform="translate(0.000000,130.000000) scale(0.100000,-0.100000)"
fill="#000000" stroke="none">

<path d="M1330 1191 c-28 -52 -5 -73 112 -101 263 -64 464 -163 444 -217 -3
-7 -1 -15 4 -18 6 -4 10 -17 10 -31 0 -38 16 -29 54 30 59 92 144 141 268 154
67 6 73 9 82 34 35 100 -190 88 -330 -18 -17 -13 -33 -24 -37 -24 -3 0 -29 16
-59 35 -65 44 -166 83 -344 135 -155 45 -189 49 -204 21z"/>
<path d="M1417 910 c-114 -29 -199 -114 -237 -238 -76 -245 76 -472 315 -472
93 0 152 25 220 93 83 84 108 147 109 277 0 84 -3 102 -29 158 -34 76 -104
143 -173 167 -59 20 -155 27 -205 15z m150 -171 c65 -31 98 -93 98 -184 0
-119 -54 -186 -155 -193 -104 -6 -180 65 -188 177 -12 164 111 265 245 200z"/>

<path d="M2225 911 c-163 -43 -265 -203 -253 -397 6 -87 49 -186 101 -230 85
-72 222 -101 329 -70 108 31 200 144 228 281 34 166 -55 349 -195 397 -59 21
-167 30 -210 19z m138 -165 c18 -7 47 -29 64 -49 109 -125 34 -337 -119 -337
-114 0 -187 94 -176 226 11 132 119 207 231 160z"/>

<path d="M496 869 l-26 -20 0 -315 c0 -305 1 -315 21 -335 15 -15 28 -19 47
-14 51 13 62 32 62 109 0 83 22 135 61 148 34 11 128 -23 175 -64 32 -28 34
-34 34 -92 0 -51 4 -67 20 -81 29 -26 89 -23 112 5 16 20 18 49 18 329 0 261
-2 310 -16 329 -21 30 -68 29 -99 -3 -22 -21 -25 -33 -25 -100 0 -87 -18 -140
-54 -156 -32 -15 -151 20 -188 54 -23 22 -26 31 -25 93 0 77 -13 111 -49 124
-34 13 -38 13 -68 -11z"/>
<path d="M3488 872 c-58 -35 -63 -60 -66 -364 l-3 -278 25 -25 c14 -14 35 -25
46 -25 32 0 70 44 70 80 0 82 50 130 137 130 132 2 226 89 240 223 11 107 -46
219 -131 258 -57 26 -277 27 -318 1z m259 -156 c23 -20 28 -32 28 -71 0 -62
-35 -95 -101 -95 -61 0 -81 13 -94 60 -12 44 -5 86 18 113 24 28 113 24 149
-7z"/>
<path d="M4095 888 c-27 -15 -45 -38 -45 -60 0 -10 37 -74 82 -141 45 -67 88
-138 95 -157 7 -21 12 -86 13 -163 0 -122 1 -129 25 -152 28 -29 76 -33 96 -8
10 11 13 40 11 94 -5 172 22 256 132 414 61 87 68 117 35 159 -39 49 -71 34
-138 -67 -18 -27 -48 -55 -66 -64 -31 -15 -35 -15 -65 7 -18 13 -47 47 -66 76
-45 70 -69 84 -109 62z"/>
<path d="M2784 876 c-50 -22 -58 -63 -19 -101 19 -20 35 -25 72 -25 53 -1 70
-10 99 -55 17 -26 19 -52 22 -252 l4 -223 25 -20 c33 -26 79 -26 93 -1 6 12
10 98 10 210 0 285 19 341 118 341 59 0 87 20 97 67 5 24 2 36 -14 52 -20 20
-32 21 -248 21 -169 -1 -236 -4 -259 -14z"/>
<path d="M1862 217 c-18 -18 -32 -36 -32 -40 0 -12 62 -77 74 -77 14 0 76 62
76 76 0 13 -63 74 -76 74 -6 0 -24 -15 -42 -33z"/>
</g>
</svg>
